# File created by Blade
# Date/Time:  Wed Apr 08 17:35:25 2015
# Frame Rate: 120.000 fps
#------------------------------------------------------
:FULLY-SPECIFIED
:DEGREES
1986
root 9.257913 38.464734 3.965597 145.076906 -56.743052 -111.545241
Spine -13.531091 0.349568 13.188470
Head 20.199803 -39.077633 23.039131
LeftShoulder -6.358566 18.557783 19.543913
LeftArm 22.070492 28.568162 -72.992538
LeftForeArm 17.957268 -0.000000 29.444080
LeftHand -13.663727 -0.000000 -10.046869
LeftHandThumb1 -26.253704 0.000000 33.147579
RightShoulder -40.332861 -47.013437 24.526937
RightArm 49.160228 -14.197796 56.164107
RightForeArm 5.451034 0.000000 8.088838
RightHand -2.583651 -0.000000 2.492022
RightHandThumb1 -24.326973 -0.000000 -32.862282
LeftUpLeg -39.739332 34.172946 6.229811
LeftLeg 12.831520 -0.000000 -0.000000
LeftFoot -8.271217 11.375267 -1.819329
LeftToeBase 5.048506 -0.000000 -0.000000
RightUpLeg -73.157979 -26.081135 -7.822406
RightLeg 131.908945 -0.000000 -0.000000
RightFoot 30.339555 2.775722 26.334141
RightToeBase 9.531437 -0.000000 -0.000000
1987
root 9.266971 38.471446 3.955262 144.985762 -56.741609 -111.385405
Spine -13.526599 0.452457 13.158814
Head 20.055092 -38.911952 23.083555
LeftShoulder -6.381017 18.582132 19.559737
LeftArm 21.996124 28.466126 -73.082661
LeftForeArm 17.938399 0.000000 29.190211
LeftHand -13.625044 -0.000000 -10.000841
LeftHandThumb1 -26.253704 0.000000 33.147579
RightShoulder -40.308388 -47.040109 24.536446
RightArm 49.194544 -13.992976 56.263965
RightForeArm 5.379410 -0.000000 8.016758
RightHand -2.599583 -0.000000 2.402574
RightHandThumb1 -24.326973 -0.000000 -32.862282
LeftUpLeg -39.869319 34.245416 6.200381
LeftLeg 12.834943 -0.000000 -0.000000
LeftFoot -8.280918 11.283262 -1.959725
LeftToeBase 5.158447 -0.000000 -0.000000
RightUpLeg -72.629457 -26.162168 -8.293966
RightLeg 131.967635 -0.000000 -0.000000
RightFoot 30.401330 2.611167 26.226182
RightToeBase 8.583568 -0.000000 -0.000000
1988
root 9.278445 38.478482 3.943310 144.888594 -56.753252 -111.210218
Spine -13.532997 0.560608 13.114064
Head 19.903898 -38.786193 23.145440
LeftShoulder -6.368973 18.578228 19.606964
LeftArm 21.902722 28.382896 -73.178903
LeftForeArm 17.911364 -0.000000 28.956937
LeftHand -13.689532 0.000000 -9.972669
LeftHandThumb1 -26.253704 0.000000 33.147579
RightShoulder -40.222723 -47.012615 24.474661
RightArm 49.108952 -13.730048 56.505777
RightForeArm 5.204754 -0.000000 7.923475
RightHand -2.563537 -0.000000 2.545684
RightHandThumb1 -24.326973 -0.000000 -32.862282
LeftUpLeg -40.073826 34.379870 6.109675
LeftLeg 12.885665 -0.000000 -0.000000
LeftFoot -8.290851 11.080832 -2.048977
LeftToeBase 5.355764 -0.000000 -0.000000
RightUpLeg -72.070934 -26.224638 -8.811359
RightLeg 132.053682 -0.000000 -0.000000
RightFoot 30.505746 2.481269 26.131530
RightToeBase 9.711938 -0.000000 -0.000000
1989
root 9.289086 38.486610 3.931469 144.843819 -56.750379 -111.072391
Spine -13.555209 0.675406 13.057859
Head 19.757988 -38.658858 23.244900
LeftShoulder -6.374426 18.546394 19.658544
LeftArm 21.767196 28.297432 -73.306704
LeftForeArm 17.963786 -0.000000 28.702835
LeftHand -13.701229 -0.000000 -9.964564
LeftHandThumb1 -26.253704 0.000000 33.147579
RightShoulder -40.168327 -46.990825 24.467174
RightArm 49.032109 -13.490086 56.689222
RightForeArm 5.031816 -0.000000 7.878726
RightHand -2.579124 -0.000000 2.355900
RightHandThumb1 -24.326973 -0.000000 -32.862282
LeftUpLeg -40.292582 34.511343 6.021924
LeftLeg 12.955525 -0.000000 -0.000000
LeftFoot -8.314149 10.881622 -2.199698
LeftToeBase 5.626012 -0.000000 -0.000000
RightUpLeg -71.505562 -26.236515 -9.360173
RightLeg 132.133074 -0.000000 -0.000000
RightFoot 30.738063 2.386831 25.943078
RightToeBase 10.142820 -0.000000 -0.000000
1990
root 9.299823 38.495621 3.915827 144.860299 -56.699618 -111.005569
Spine -13.560398 0.818306 12.980462
Head 19.588705 -38.542013 23.412256
LeftShoulder -6.419753 18.517696 19.710045
LeftArm 21.669409 28.266278 -73.375696
LeftForeArm 17.975512 -0.000000 28.431864
LeftHand -13.706316 -0.000000 -9.976001
LeftHandThumb1 -26.253704 0.000000 33.147579
RightShoulder -40.136862 -46.971645 24.495877
RightArm 48.983795 -13.261163 56.853824
RightForeArm 5.019624 -0.000000 7.825080
RightHand -2.621963 0.000000 2.268935
RightHandThumb1 -24.326973 -0.000000 -32.862282
LeftUpLeg -40.464592 34.618883 6.017428
LeftLeg 13.044974 -0.000000 -0.000000
LeftFoot -8.363356 10.780679 -2.448715
LeftToeBase 5.840461 -0.000000 -0.000000
RightUpLeg -70.973903 -26.149716 -9.884299
RightLeg 132.227428 -0.000000 -0.000000
RightFoot 31.100948 2.293182 25.505605
RightToeBase 9.100697 -0.000000 -0.000000
1991
root 9.312872 38.504805 3.903241 144.928186 -56.648396 -110.969338
Spine -13.586969 1.016828 12.872023
Head 19.390573 -38.456360 23.607178
LeftShoulder -6.396288 18.458104 19.800399
LeftArm 21.540734 28.180491 -73.494746
LeftForeArm 18.100609 -0.000000 28.175493
LeftHand -13.693469 -0.000000 -10.159197
LeftHandThumb1 -26.253704 0.000000 33.147579
RightShoulder -40.092673 -46.888793 24.484935
RightArm 48.832123 -13.036168 57.102824
RightForeArm 4.944620 0.000000 7.792724
RightHand -2.657567 -0.000000 1.866391
RightHandThumb1 -24.326973 -0.000000 -32.862282
LeftUpLeg -40.690250 34.786175 5.939687
LeftLeg 13.131016 -0.000000 -0.000000
LeftFoot -8.415366 10.607129 -2.655695
LeftToeBase 6.116988 -0.000000 -0.000000
RightUpLeg -70.483632 -26.051882 -10.423198
RightLeg 132.336123 -0.000000 -0.000000
RightFoot 31.640662 2.068206 25.267866
RightToeBase 8.092405 -0.000000 -0.000000
